<?xml version="1.0" ?><svg id="Icons" viewBox="0 0 24 24" xmlns="http://www.w3.org/2000/svg"><defs><style>.cls-1{fill:#232323;}</style></defs><path class="cls-1" d="M5.4,24H18.6a4,4,0,0,0,3.968-4.5l-1.25-10A4.005,4.005,0,0,0,17.352,6H17V5A5,5,0,0,0,7,5V6H6.648A4.005,4.005,0,0,0,2.68,9.5l-1.25,10A4,4,0,0,0,5.4,24ZM9,5a3,3,0,0,1,6,0V6H9ZM3.414,19.752l1.25-10A2,2,0,0,1,6.648,8H7v2a1,1,0,0,0,2,0V8h6v2a1,1,0,0,0,2,0V8h.352a2,2,0,0,1,1.984,1.752l1.25,10A2,2,0,0,1,18.6,22H5.4a2,2,0,0,1-1.984-2.248Z"/></svg>